<mxfile host="app.diagrams.net" modified="2023-08-26T07:30:54.781Z" agent="Mozilla/5.0 (Windows NT 10.0; Win64; x64) AppleWebKit/537.36 (KHTML, like Gecko) Chrome/116.0.0.0 Safari/537.36" etag="bE9ASVG195T-VD_mKmKZ" version="21.6.9" type="github">
  <diagram name="Page-1" id="gcVTEQX3HFVfi4gLo5l2">
    <mxGraphModel dx="600" dy="328" grid="1" gridSize="10" guides="1" tooltips="1" connect="1" arrows="1" fold="1" page="1" pageScale="1" pageWidth="583" pageHeight="827" math="0" shadow="0">
      <root>
        <mxCell id="0" />
        <mxCell id="1" parent="0" />
        <mxCell id="KzSYD4Sz_hg-NSaklamx-19" value="ContainerBase" style="rounded=0;whiteSpace=wrap;html=1;labelPosition=center;verticalLabelPosition=top;align=center;verticalAlign=bottom;" vertex="1" parent="1">
          <mxGeometry x="260" y="85" width="120" height="95" as="geometry" />
        </mxCell>
        <mxCell id="KzSYD4Sz_hg-NSaklamx-15" value="StandardHost" style="rounded=0;whiteSpace=wrap;html=1;labelPosition=center;verticalLabelPosition=top;align=center;verticalAlign=bottom;" vertex="1" parent="1">
          <mxGeometry x="100" y="70" width="120" height="110" as="geometry" />
        </mxCell>
        <mxCell id="KzSYD4Sz_hg-NSaklamx-21" style="edgeStyle=orthogonalEdgeStyle;rounded=0;orthogonalLoop=1;jettySize=auto;html=1;exitX=1;exitY=0.5;exitDx=0;exitDy=0;entryX=0;entryY=0.5;entryDx=0;entryDy=0;" edge="1" parent="1" source="KzSYD4Sz_hg-NSaklamx-16" target="KzSYD4Sz_hg-NSaklamx-20">
          <mxGeometry relative="1" as="geometry" />
        </mxCell>
        <mxCell id="KzSYD4Sz_hg-NSaklamx-16" value="start()" style="text;html=1;strokeColor=default;fillColor=#99FF99;align=center;verticalAlign=middle;whiteSpace=wrap;rounded=0;" vertex="1" parent="1">
          <mxGeometry x="130" y="92.5" width="60" height="15" as="geometry" />
        </mxCell>
        <mxCell id="KzSYD4Sz_hg-NSaklamx-17" value="" style="endArrow=classic;html=1;rounded=0;entryX=0;entryY=0.5;entryDx=0;entryDy=0;" edge="1" parent="1" source="KzSYD4Sz_hg-NSaklamx-18" target="KzSYD4Sz_hg-NSaklamx-16">
          <mxGeometry width="50" height="50" relative="1" as="geometry">
            <mxPoint x="40" y="100" as="sourcePoint" />
            <mxPoint x="80" y="100" as="targetPoint" />
          </mxGeometry>
        </mxCell>
        <mxCell id="KzSYD4Sz_hg-NSaklamx-18" value="" style="strokeWidth=2;html=1;shape=mxgraph.flowchart.start_2;whiteSpace=wrap;" vertex="1" parent="1">
          <mxGeometry x="10" y="80" width="40" height="40" as="geometry" />
        </mxCell>
        <mxCell id="KzSYD4Sz_hg-NSaklamx-23" style="edgeStyle=orthogonalEdgeStyle;rounded=0;orthogonalLoop=1;jettySize=auto;html=1;entryX=1;entryY=0.5;entryDx=0;entryDy=0;exitX=0.5;exitY=1;exitDx=0;exitDy=0;" edge="1" parent="1" source="KzSYD4Sz_hg-NSaklamx-20" target="KzSYD4Sz_hg-NSaklamx-22">
          <mxGeometry relative="1" as="geometry">
            <Array as="points">
              <mxPoint x="320" y="110" />
              <mxPoint x="230" y="110" />
              <mxPoint x="230" y="130" />
            </Array>
          </mxGeometry>
        </mxCell>
        <mxCell id="KzSYD4Sz_hg-NSaklamx-20" value="start()" style="text;html=1;strokeColor=default;fillColor=none;align=center;verticalAlign=middle;whiteSpace=wrap;rounded=0;" vertex="1" parent="1">
          <mxGeometry x="300" y="92.5" width="40" height="15" as="geometry" />
        </mxCell>
        <mxCell id="KzSYD4Sz_hg-NSaklamx-25" style="edgeStyle=orthogonalEdgeStyle;rounded=0;orthogonalLoop=1;jettySize=auto;html=1;exitX=0.5;exitY=1;exitDx=0;exitDy=0;entryX=0.5;entryY=1;entryDx=0;entryDy=0;" edge="1" parent="1" source="KzSYD4Sz_hg-NSaklamx-22" target="KzSYD4Sz_hg-NSaklamx-24">
          <mxGeometry relative="1" as="geometry" />
        </mxCell>
        <mxCell id="KzSYD4Sz_hg-NSaklamx-22" value="addDefaultMapper()" style="text;html=1;strokeColor=default;fillColor=none;align=center;verticalAlign=middle;whiteSpace=wrap;rounded=0;" vertex="1" parent="1">
          <mxGeometry x="105" y="120" width="110" height="20" as="geometry" />
        </mxCell>
        <mxCell id="KzSYD4Sz_hg-NSaklamx-24" value="addDefaultMapper()" style="text;html=1;strokeColor=default;fillColor=#FF8000;align=center;verticalAlign=middle;whiteSpace=wrap;rounded=0;" vertex="1" parent="1">
          <mxGeometry x="265" y="120" width="110" height="20" as="geometry" />
        </mxCell>
      </root>
    </mxGraphModel>
  </diagram>
</mxfile>
